PathFileType	4	(X/Y/Z)	/Users/visionmauri/Downloads/Videos/OAW06-top_Sports2D/OAW06-top_Sports2D_px_person00.trc
DataRate	CameraRate	NumFrames	NumMarkers	Units	OrigDataRate	OrigDataStartFrame	OrigNumFrames
30.0	30.0	12	22	m	30.0	1595	2127
Frame#	Time	Hip			RHip			RKnee			RAnkle			RBigToe			RSmallToe			RHeel			LHip			LKnee			LAnkle			LBigToe			LSmallToe			LHeel			Neck			Head			Nose			RShoulder			RElbow			RWrist			LShoulder			LElbow			LWrist			
		X1	Y1	Z1	X2	Y2	Z2	X3	Y3	Z3	X4	Y4	Z4	X5	Y5	Z5	X6	Y6	Z6	X7	Y7	Z7	X8	Y8	Z8	X9	Y9	Z9	X10	Y10	Z10	X11	Y11	Z11	X12	Y12	Z12	X13	Y13	Z13	X14	Y14	Z14	X15	Y15	Z15	X16	Y16	Z16	X17	Y17	Z17	X18	Y18	Z18	X19	Y19	Z19	X20	Y20	Z20	X21	Y21	Z21	X22	Y22	Z22
1595	53.19167450611478	649.7309306983501	789.7228059142498	0.0	662.7192501056036	792.1750004087324	0.0	659.9063534483768	845.945645614375	0.0	658.3021266669172	899.1380630163959	0.0	654.5370173139141	909.367790397359	0.0	665.8068118456822	911.144780203293	0.0	656.6474133518211	910.2464102908864	0.0	636.2676545453485	791.3718300006551	0.0	638.892824751825	850.2567815722882	0.0	640.5932918518384	905.5160648809954	0.0	643.4108169675781	911.3554136308015	0.0	633.7059876686659	915.6238562352428	0.0	641.7080258636493	917.3735875896047	0.0	655.2818337067664	712.76714054225	0.0	658.6746019838059	678.4917641947134	0.0	660.2802837125961	700.9949270269954	0.0	680.1370207380257	722.1146391495867	0.0	681.7334774629413	762.1821166320458	0.0	683.7272068147863	799.6810087217119	0.0	631.6737734114096	719.4779875094146	0.0	621.1336883317433	757.7358467468986	0.0	616.0121189601006	793.9663647773115	0.0
1596	53.225023518344315	650.0719938873557	789.2821189555459	0.0	662.9960338595314	791.8588225381758	0.0	660.1868051550146	845.931147288601	0.0	658.7309297169375	898.4765696583073	0.0	654.650017524952	907.6656644908101	0.0	665.8976395130742	909.5862733472263	0.0	657.1374226560146	909.1462408972413	0.0	636.4467470912793	791.1965579091609	0.0	639.0874398592204	850.3449129324507	0.0	640.6951009020761	905.5445225910993	0.0	643.7832008270647	911.3692609680094	0.0	633.9880312514293	915.63498475947	0.0	641.9389364675635	917.3264972180914	0.0	655.7644941188433	712.9504400479893	0.0	658.9295793565934	679.9629993114397	0.0	661.0365636572909	701.9216383660339	0.0	680.1088793230372	722.3213245582149	0.0	681.6885866980629	762.1082546195089	0.0	683.6096327600105	799.7036816470851	0.0	632.2812020831668	719.410365545085	0.0	621.4625799508183	757.2937097843662	0.0	616.4972315788003	793.2475118224089	0.0
1597	53.25837253057385	650.5653303324951	789.045111137018	0.0	663.4825286924189	791.9249976616989	0.0	660.4658216298031	845.8926968856076	0.0	659.0649941128183	897.0038141985092	0.0	654.3930376901569	905.0743370536245	0.0	665.9783240673729	907.2783217467712	0.0	657.3643434805385	907.1513835434445	0.0	636.5647423772241	791.2095835758274	0.0	639.2772277873522	850.3321558158644	0.0	640.7000170008804	905.6415861205585	0.0	644.0182784944802	911.4549521270475	0.0	634.239301696415	915.7169066590313	0.0	642.0689822295883	917.068405621267	0.0	656.3293748453505	713.2051037922772	0.0	659.2322686077167	680.6828276829375	0.0	661.1456277975865	702.6368904822305	0.0	680.2716842021197	722.5089694441991	0.0	681.742572176831	762.0908644778805	0.0	683.7475134219482	799.7463920640487	0.0	632.6670280287696	719.4091279001062	0.0	621.6998522866994	757.239140861413	0.0	616.9414199640835	792.550838122067	0.0
1598	53.291721542803394	651.0993193379408	788.8826157188121	0.0	664.0132135906501	791.8830172957815	0.0	660.6366194038158	845.8799339322322	0.0	659.2376671573652	895.6419518203772	0.0	653.9754245866266	902.8272475773433	0.0	666.0830918739379	905.2861409218251	0.0	657.3861005561764	905.2565465464053	0.0	636.932195354628	791.0575728444265	0.0	639.4338427474455	850.2699105215363	0.0	640.6636800828945	905.7858394761215	0.0	644.0155522840024	911.5166864952182	0.0	634.3010420670469	915.727236019524	0.0	642.039255596326	916.7937375645708	0.0	656.9089599868636	713.4285389598049	0.0	659.9231940247595	680.8360740837276	0.0	661.1577729680293	702.8004408517401	0.0	680.7672487224567	722.5981538132834	0.0	681.9972398936015	762.1331950770655	0.0	684.1836586405085	799.7557107082005	0.0	633.251005561648	719.4954052152337	0.0	622.1408358562553	757.2529430029725	0.0	617.49441152731	791.9446610374705	0.0
1599	53.32507055503293	651.6458260587162	788.6267427659535	0.0	664.4085781194226	791.5361239767893	0.0	660.7185828814033	845.8997518663148	0.0	659.3559929096125	894.922234092086	0.0	653.5595281354549	902.1493620689595	0.0	666.1739773957142	904.4713471645675	0.0	657.415651437298	904.3299427022911	0.0	637.5766498456217	790.5999212640851	0.0	639.6661956269575	849.9788183292931	0.0	640.6207102555442	905.6503796090991	0.0	643.9464503236236	911.4524453649276	0.0	634.1548795239642	915.347998639182	0.0	641.8963221101421	916.4676518303883	0.0	657.6074260481712	713.713390713913	0.0	661.3423461809875	682.0457515729346	0.0	662.3096664375237	703.2824654849394	0.0	681.4331654527182	722.607505670182	0.0	682.5066058128995	762.2522838857986	0.0	684.7640806458686	799.8146481420554	0.0	634.2689285173976	719.4893994538844	0.0	622.9936738366879	757.1095201690442	0.0	618.2354336411544	791.7530672357203	0.0
1600	53.35841956726247	652.1699793643037	788.4171144806444	0.0	664.6459024586636	791.3039605535942	0.0	660.8095676927773	845.8413093854367	0.0	659.4622050010803	894.8638235790484	0.0	653.2294665742525	902.8630863095228	0.0	666.1916788185935	904.6717722142131	0.0	657.5497207317787	904.3676236290848	0.0	638.1956793838318	790.1686936553497	0.0	639.9071933696025	849.1772938159576	0.0	640.5740840088956	904.5822426797059	0.0	643.8718411886427	911.1375053164651	0.0	634.0713429606764	914.477105469061	0.0	641.8332753194362	915.4950103595202	0.0	658.3477113146158	714.0596439453482	0.0	662.8395488965281	684.1392953511336	0.0	663.9281116511215	704.4136110088286	0.0	681.9865833610327	722.6253614809746	0.0	683.1965630622408	762.4269641986356	0.0	685.2606695076971	799.997522165615	0.0	635.2997816824219	719.337693576834	0.0	624.042329183409	756.8678381557247	0.0	619.0165176064918	791.8184092521176	0.0
1601	53.39176857949201	652.6497278609245	788.336884167826	0.0	664.8585038583107	791.3393985623671	0.0	661.0048432606803	845.4368861820374	0.0	659.5115253921983	894.9887197217971	0.0	653.0517837778423	903.8384566952731	0.0	666.2103011904686	905.0902575550882	0.0	657.6520780059656	904.629884259688	0.0	638.6673947169581	789.9458442261586	0.0	639.9226005081698	847.7735329658299	0.0	640.586553623535	901.8908939558848	0.0	643.9633197737928	910.9557839580957	0.0	634.40090744147	913.5128621640418	0.0	642.0774330882007	912.9913848645098	0.0	658.9219695440258	714.1351919732238	0.0	663.3806492546216	685.0430732429079	0.0	664.3818164115182	705.2049098647491	0.0	682.3663450929643	722.641410724987	0.0	683.8904192739448	762.4957845139976	0.0	685.6450725264497	799.9928952354259	0.0	635.9414677163355	719.1867410639347	0.0	624.930004025881	756.5490880206661	0.0	619.748299437123	791.4390718379877	0.0
1602	53.42511759172155	653.2139967990873	787.9998939110194	0.0	665.3708458058057	791.16087503876	0.0	661.382839468047	844.4871345561784	0.0	659.5028040849786	894.6701441342786	0.0	653.1650494958524	904.2332061951518	0.0	666.3553160540868	905.109271425345	0.0	657.6025795589667	904.4292513253896	0.0	639.2253807494554	789.5601909025032	0.0	639.7646468584769	845.9013141028925	0.0	640.7853501732728	897.2373505223261	0.0	644.6950030848952	911.7150501527092	0.0	635.220016182899	912.9781377150222	0.0	642.6555216929704	908.3891996079542	0.0	659.4408981287417	713.5514396807908	0.0	663.0443135179613	682.9763352732116	0.0	663.8271669341542	704.6992476636666	0.0	682.7999103886916	722.4530593021944	0.0	684.4615887538068	762.1700693373956	0.0	686.1656624659222	799.2634084824143	0.0	636.3490955098042	718.9980956272583	0.0	625.6813976912027	756.1311777619383	0.0	620.5552382785163	790.4507693264753	0.0
1603	53.45846660395109	654.0074230595606	787.0290728607922	0.0	666.4158864094434	790.384465505325	0.0	661.9911353778577	843.0962063196827	0.0	659.48530856226	893.7008934361102	0.0	653.7523047663256	903.9267543124024	0.0	666.5643588030504	904.7076741903312	0.0	657.5393669605702	903.7927802522217	0.0	640.0870343224253	788.7302558140062	0.0	639.817293929435	843.7731750109715	0.0	641.2111913545796	891.2229516396989	0.0	645.9641488418371	913.0181338681016	0.0	636.167150290656	912.6741131806971	0.0	643.3698948917569	902.2542849897131	0.0	660.1737124610895	712.3035020463158	0.0	662.742971018698	678.1140865857988	0.0	663.4376584253201	702.8878565803542	0.0	683.544674491925	721.8721062881255	0.0	685.0429133267291	761.3645999517466	0.0	686.966161460597	797.7329778220607	0.0	636.8501200063222	718.5234224667423	0.0	626.5629116774675	755.7226807145962	0.0	621.4489514898225	789.5734216484692	0.0
1604	53.49181561618063	654.9463313153138	785.6835021682782	0.0	667.6126782146865	789.2395708759439	0.0	662.72339241699	841.6417514060223	0.0	659.5068837837525	892.458616708554	0.0	654.6519442618021	903.1467537828659	0.0	666.6640325290385	904.2925835339106	0.0	657.5946477253759	903.1442273735869	0.0	641.1431729446583	787.6954205268463	0.0	640.239054415827	841.6404121564998	0.0	641.7506466297486	885.4346472553249	0.0	646.9093621150184	912.7698218850308	0.0	636.7815818873904	911.4815885215493	0.0	644.0198079339345	896.3156596905487	0.0	660.9648591177752	710.6991578835695	0.0	662.9082644093465	673.7365551673064	0.0	663.4575080197227	700.24560930169	0.0	684.4698877653425	721.0812949233119	0.0	685.8224104705462	760.39617527531	0.0	687.7666882570664	795.956085661418	0.0	637.3893436101982	717.7356248762155	0.0	627.5172555771142	755.3112455032696	0.0	622.2801626005212	789.3037533229168	0.0
1605	53.52516462841017	655.7319934969184	784.5050364455451	0.0	668.340882439388	788.1151939959319	0.0	663.2892846745245	840.553225376592	0.0	659.5687089169672	891.586301462077	0.0	655.3245705090883	902.1477746545941	0.0	666.6778038732624	904.0540243685772	0.0	657.7109917517214	902.611305867281	0.0	642.0611625811418	786.7436837699943	0.0	640.7741416223478	839.769780673363	0.0	642.2919481051437	881.3088070521994	0.0	647.2239367735829	909.9369989857155	0.0	637.0115569791028	908.7575051473148	0.0	644.5550638517243	892.0097105684823	0.0	661.4043262178058	709.2342989677495	0.0	663.2441015940325	673.107447825949	0.0	663.5535321597816	697.757277691278	0.0	685.0930962509874	720.4208539480879	0.0	686.6718009532591	759.578725712076	0.0	688.2002003686453	794.4021405581734	0.0	637.6469208488817	716.9320041315082	0.0	628.2373546030728	754.6943034701642	0.0	623.0236688560014	789.2336983388158	0.0
1606	53.5585136406397	656.1664663110504	783.678328657727	0.0	668.5795002081928	787.1249433282507	0.0	663.5697966559321	839.9485899316782	0.0	659.6195969464306	891.3446665935227	0.0	655.5647430992434	901.0780229560156	0.0	666.7753153734797	903.6609570368282	0.0	657.8277329008267	902.001697270914	0.0	642.6775757888541	785.9010358174569	0.0	641.2115789939827	838.242774708968	0.0	642.800913589298	879.2583407751874	0.0	647.4381855004158	906.1665000568136	0.0	637.038181123118	905.3944850138653	0.0	645.0197442656338	889.6013153924944	0.0	661.476423130882	708.2789946278197	0.0	663.4327685758404	674.6698350299417	0.0	663.5777575740507	696.5014405194556	0.0	685.2004455111703	719.8311319654849	0.0	687.3530572080272	758.8827832563268	0.0	688.3715654970752	793.0761121345389	0.0	637.6118808363843	716.2993565532842	0.0	628.6824401778169	753.8702597436428	0.0	623.6434413058762	788.7877387236005	0.0
